<svg width="461.91497802734375px" height="256.4275024414062px" xmlns="http://www.w3.org/2000/svg" viewBox="19.042510986328125 -53.2137512207031 461.91497802734375 256.4275024414062" style="background: rgb(52, 58, 64);" preserveAspectRatio="xMidYMid"><defs><filter id="editing-offset"><feFlood flood-color="#85a2b6" flood-opacity="0.5" result="c1"></feFlood><feFlood flood-color="#bbcedd" flood-opacity="0.5" result="c2"></feFlood><feFlood flood-color="#dce4eb" flood-opacity="0.5" result="c3"></feFlood><feComposite operator="in" in="c1" in2="SourceAlpha" result="text-c1"></feComposite><feComposite operator="in" in="c2" in2="SourceAlpha" result="text-c2"></feComposite><feComposite operator="in" in="c3" in2="SourceAlpha" result="text-c3"></feComposite><feOffset in="text-c1" dx="-10" dy="0" result="text1"></feOffset><feOffset in="text-c2" dx="10" dy="0" result="text2"></feOffset><feOffset in="text-c3" dx="0" dy="0" result="text3"></feOffset><feMerge><feMergeNode in="text1"></feMergeNode><feMergeNode in="text2"></feMergeNode><feMergeNode in="text3"></feMergeNode></feMerge></filter></defs><g filter="url(#editing-offset)"><g transform="translate(87.67000007629395, 108.11499786376953)"><path d="M35.54-47.17L35.54-47.17L35.54-47.17Q36.67-47.69 39.09-48.36L39.09-48.36L39.09-48.36Q41.51-49.03 43.98-49.03L43.98-49.03L43.98-49.03Q48.31-49.03 51.19-47.74L51.19-47.74L51.19-47.74Q54.08-46.45 54.69-43.98L54.69-43.98L54.69-43.98Q55.83-39.76 56.80-36.10L56.80-36.10L56.80-36.10Q57.78-32.45 58.71-29.10L58.71-29.10L58.71-29.10Q59.64-25.75 60.51-22.45L60.51-22.45L60.51-22.45Q61.39-19.16 62.21-15.55L62.21-15.55L62.73-15.55L62.73-15.55Q63.65-21.84 64.38-27.55L64.38-27.55L64.38-27.55Q65.10-33.27 65.71-38.78L65.71-38.78L65.71-38.78Q66.33-44.29 66.95-49.70L66.95-49.70L66.95-49.70Q67.57-55.11 68.19-60.67L68.19-60.67L68.19-60.67Q72.00-62.83 76.32-62.83L76.32-62.83L76.32-62.83Q80.13-62.83 82.92-61.18L82.92-61.18L82.92-61.18Q85.70-59.53 85.70-55.62L85.70-55.62L85.70-55.62Q85.70-53.35 85.23-49.18L85.23-49.18L85.23-49.18Q84.77-45.01 84.00-39.86L84.00-39.86L84.00-39.86Q83.22-34.71 82.19-29.05L82.19-29.05L82.19-29.05Q81.16-23.38 80.03-18.23L80.03-18.23L80.03-18.23Q78.90-13.08 77.71-8.91L77.71-8.91L77.71-8.91Q76.53-4.74 75.50-2.47L75.50-2.47L75.50-2.47Q73.95-1.03 70.45-0.10L70.45-0.10L70.45-0.10Q66.95 0.82 63.24 0.82L63.24 0.82L63.24 0.82Q58.40 0.82 55.05-0.46L55.05-0.46L55.05-0.46Q51.71-1.75 50.99-4.12L50.99-4.12L50.99-4.12Q49.65-8.24 48.10-13.91L48.10-13.91L48.10-13.91Q46.56-19.57 44.81-26.37L44.81-26.37L44.81-26.37Q43.36-19.67 41.82-13.29L41.82-13.29L41.82-13.29Q40.27-6.90 39.04-2.47L39.04-2.47L39.04-2.47Q37.49-1.03 34.40-0.10L34.40-0.10L34.40-0.10Q31.31 0.82 27.60 0.82L27.60 0.82L27.60 0.82Q22.97 0.82 19.21-0.46L19.21-0.46L19.21-0.46Q15.45-1.75 14.32-4.12L14.32-4.12L14.32-4.12Q13.39-5.97 12.31-9.63L12.31-9.63L12.31-9.63Q11.23-13.29 10.09-17.97L10.09-17.97L10.09-17.97Q8.96-22.66 7.78-28.12L7.78-28.12L7.78-28.12Q6.59-33.58 5.61-39.04L5.61-39.04L5.61-39.04Q4.64-44.50 3.81-49.70L3.81-49.70L3.81-49.70Q2.99-54.90 2.58-59.23L2.58-59.23L2.58-59.23Q4.02-60.56 6.59-61.70L6.59-61.70L6.59-61.70Q9.17-62.83 12.15-62.83L12.15-62.83L12.15-62.83Q16.07-62.83 18.59-61.13L18.59-61.13L18.59-61.13Q21.12-59.43 21.73-55.41L21.73-55.41L21.73-55.41Q23.38-44.91 24.46-37.90L24.46-37.90L24.46-37.90Q25.54-30.90 26.21-26.42L26.21-26.42L26.21-26.42Q26.88-21.94 27.19-19.47L27.19-19.47L27.19-19.47Q27.50-17.00 27.81-15.55L27.81-15.55L28.33-15.55L28.33-15.55Q29.25-19.67 30.08-23.18L30.08-23.18L30.08-23.18Q30.90-26.68 31.78-30.23L31.78-30.23L31.78-30.23Q32.65-33.78 33.58-37.85L33.58-37.85L33.58-37.85Q34.51-41.92 35.54-47.17ZM113.09-25.44L113.09-12.88L113.09-12.88Q114.54-12.46 116.80-12.31L116.80-12.31L116.80-12.31Q119.07-12.15 121.13-12.15L121.13-12.15L121.13-12.15Q125.25-12.15 127.98-13.85L127.98-13.85L127.98-13.85Q130.71-15.55 130.71-19.16L130.71-19.16L130.71-19.16Q130.71-22.56 128.44-24.00L128.44-24.00L128.44-24.00Q126.18-25.44 121.54-25.44L121.54-25.44L113.09-25.44ZM113.09-50.16L113.09-38.01L120.61-38.01L120.61-38.01Q125.04-38.01 127.05-39.66L127.05-39.66L127.05-39.66Q129.06-41.30 129.06-44.50L129.06-44.50L129.06-44.50Q129.06-47.28 126.74-48.93L126.74-48.93L126.74-48.93Q124.42-50.57 119.79-50.57L119.79-50.57L119.79-50.57Q118.24-50.57 116.24-50.47L116.24-50.47L116.24-50.47Q114.23-50.37 113.09-50.16L113.09-50.16ZM119.79 1.65L119.79 1.65L119.79 1.65Q118.04 1.65 115.67 1.55L115.67 1.55L115.67 1.55Q113.30 1.44 110.78 1.13L110.78 1.13L110.78 1.13Q108.25 0.82 105.78 0.36L105.78 0.36L105.78 0.36Q103.31-0.10 101.25-0.93L101.25-0.93L101.25-0.93Q95.58-3.09 95.58-8.45L95.58-8.45L95.58-56.55L95.58-56.55Q95.58-58.71 96.77-59.89L96.77-59.89L96.77-59.89Q97.95-61.08 100.01-61.80L100.01-61.80L100.01-61.80Q103.52-63.04 108.77-63.60L108.77-63.60L108.77-63.60Q114.02-64.17 119.58-64.17L119.58-64.17L119.58-64.17Q132.77-64.17 139.87-59.74L139.87-59.74L139.87-59.74Q146.98-55.31 146.98-46.04L146.98-46.04L146.98-46.04Q146.98-41.41 144.30-38.06L144.30-38.06L144.30-38.06Q141.63-34.71 137.09-33.17L137.09-33.17L137.09-33.17Q142.24-31.72 145.69-27.91L145.69-27.91L145.69-27.91Q149.14-24.10 149.14-18.33L149.14-18.33L149.14-18.33Q149.14-8.14 141.57-3.24L141.57-3.24L141.57-3.24Q134.00 1.65 119.79 1.65ZM202.50-15.35L202.50-15.35L202.50-15.35Q201.16-14.21 199.05-13.54L199.05-13.54L199.05-13.54Q196.94-12.88 194.16-12.88L194.16-12.88L194.16-12.88Q190.45-12.88 188.03-13.80L188.03-13.80L188.03-13.80Q185.61-14.73 184.89-17.00L184.89-17.00L184.89-17.00Q182.00-26.06 180.15-31.67L180.15-31.67L180.15-31.67Q178.29-37.29 177.26-41.51L177.26-41.51L176.75-41.51L176.75-41.51Q176.44-35.43 176.28-30.44L176.28-30.44L176.28-30.44Q176.13-25.44 176.08-20.70L176.08-20.70L176.08-20.70Q176.03-15.97 175.87-11.12L175.87-11.12L175.87-11.12Q175.72-6.28 175.41-0.41L175.41-0.41L175.41-0.41Q174.07 0.10 171.91 0.46L171.91 0.46L171.91 0.46Q169.74 0.82 167.58 0.82L167.58 0.82L167.58 0.82Q163.05 0.82 160.53-0.62L160.53-0.62L160.53-0.62Q158.00-2.06 158.00-5.87L158.00-5.87L160.99-58.40L160.99-58.40Q161.81-59.74 164.59-61.29L164.59-61.29L164.59-61.29Q167.38-62.83 172.42-62.83L172.42-62.83L172.42-62.83Q177.88-62.83 180.97-61.13L180.97-61.13L180.97-61.13Q184.06-59.43 185.50-55.62L185.50-55.62L185.50-55.62Q186.43-53.15 187.51-49.96L187.51-49.96L187.51-49.96Q188.59-46.76 189.67-43.36L189.67-43.36L189.67-43.36Q190.76-39.96 191.79-36.62L191.79-36.62L191.79-36.62Q192.82-33.27 193.64-30.59L193.64-30.59L194.16-30.59L194.16-30.59Q196.63-39.24 199.10-47.33L199.10-47.33L199.10-47.33Q201.57-55.41 203.63-60.87L203.63-60.87L203.63-60.87Q205.18-61.70 207.60-62.26L207.60-62.26L207.60-62.26Q210.02-62.83 213.00-62.83L213.00-62.83L213.00-62.83Q218.05-62.83 221.24-61.34L221.24-61.34L221.24-61.34Q224.44-59.84 224.95-57.06L224.95-57.06L224.95-57.06Q225.36-55.00 225.83-50.73L225.83-50.73L225.83-50.73Q226.29-46.45 226.81-41.10L226.81-41.10L226.81-41.10Q227.32-35.74 227.84-29.77L227.84-29.77L227.84-29.77Q228.35-23.79 228.81-18.28L228.81-18.28L228.81-18.28Q229.28-12.77 229.59-8.19L229.59-8.19L229.59-8.19Q229.90-3.61 230.00-1.13L230.00-1.13L230.00-1.13Q228.25-0.10 226.34 0.36L226.34 0.36L226.34 0.36Q224.44 0.82 221.45 0.82L221.45 0.82L221.45 0.82Q217.54 0.82 214.86-0.52L214.86-0.52L214.86-0.52Q212.18-1.85 211.97-5.77L211.97-5.77L211.97-5.77Q211.36-17.00 211.20-25.96L211.20-25.96L211.20-25.96Q211.05-34.92 210.74-40.99L210.74-40.99L210.22-40.99L210.22-40.99Q209.19-36.98 207.24-30.90L207.24-30.90L207.24-30.90Q205.28-24.82 202.50-15.35ZM259.46-54.80L259.46-0.41L259.46-0.41Q258.32-0.10 255.90 0.21L255.90 0.21L255.90 0.21Q253.48 0.52 251.11 0.52L251.11 0.52L251.11 0.52Q248.75 0.52 246.94 0.15L246.94 0.15L246.94 0.15Q245.14-0.21 243.90-1.13L243.90-1.13L243.90-1.13Q242.67-2.06 242.05-3.71L242.05-3.71L242.05-3.71Q241.43-5.36 241.43-8.03L241.43-8.03L241.43-62.42L241.43-62.42Q242.57-62.62 245.04-62.98L245.04-62.98L245.04-62.98Q247.51-63.35 249.78-63.35L249.78-63.35L249.78-63.35Q252.14-63.35 253.95-62.98L253.95-62.98L253.95-62.98Q255.75-62.62 256.99-61.70L256.99-61.70L256.99-61.70Q258.22-60.77 258.84-59.12L258.84-59.12L258.84-59.12Q259.46-57.47 259.46-54.80L259.46-54.80ZM304.67-49.85L304.67-49.85L304.67-49.85Q296.74-49.85 292.52-45.01L292.52-45.01L292.52-45.01Q288.30-40.17 288.30-31.31L288.30-31.31L288.30-31.31Q288.30-22.35 292.98-17.51L292.98-17.51L292.98-17.51Q297.67-12.67 305.60-12.67L305.60-12.67L305.60-12.67Q309.82-12.67 312.76-13.80L312.76-13.80L312.76-13.80Q315.70-14.94 318.37-16.38L318.37-16.38L318.37-16.38Q320.12-14.94 321.10-12.93L321.10-12.93L321.10-12.93Q322.08-10.92 322.08-8.24L322.08-8.24L322.08-8.24Q322.08-4.02 317.39-1.08L317.39-1.08L317.39-1.08Q312.71 1.85 303.13 1.85L303.13 1.85L303.13 1.85Q296.23 1.85 290.15-0.10L290.15-0.10L290.15-0.10Q284.07-2.06 279.54-6.13L279.54-6.13L279.54-6.13Q275.01-10.20 272.38-16.43L272.38-16.43L272.38-16.43Q269.76-22.66 269.76-31.31L269.76-31.31L269.76-31.31Q269.76-39.35 272.28-45.47L272.28-45.47L272.28-45.47Q274.80-51.60 279.18-55.83L279.18-55.83L279.18-55.83Q283.56-60.05 289.43-62.21L289.43-62.21L289.43-62.21Q295.30-64.38 302.00-64.38L302.00-64.38L302.00-64.38Q311.47-64.38 316.67-61.29L316.67-61.29L316.67-61.29Q321.88-58.20 321.88-53.35L321.88-53.35L321.88-53.35Q321.88-50.68 320.54-48.72L320.54-48.72L320.54-48.72Q319.20-46.76 317.45-45.63L317.45-45.63L317.45-45.63Q314.77-47.38 311.73-48.62L311.73-48.62L311.73-48.62Q308.69-49.85 304.67-49.85Z"></path></g></g><style>text {
  font-size: 64px;
  font-family: Arial Black;
  dominant-baseline: central;
  text-anchor: middle;
}</style></svg>